<!DOCTYPE svg PUBLIC "-//W3C//DTD SVG 20010904//EN" "http://www.w3.org/TR/2001/REC-SVG-20010904/DTD/svg10.dtd">
<svg version="1.0" xmlns="http://www.w3.org/2000/svg" width="150px" height="150px" viewBox="0 0 1500 1500" preserveAspectRatio="xMidYMid meet">
<g id="layer101" fill="#0e0e0e" stroke="none">
<path d="M0 750 l0 -750 750 0 750 0 0 750 0 750 -750 0 -750 0 0 -750z"/>
</g>
<g id="layer102" fill="#323232" stroke="none">
<path d="M1290 1482 c0 -25 -40 -42 -95 -42 -29 0 -45 -4 -45 -12 0 -9 -3 -9 -9 1 -7 11 -54 15 -233 18 -234 3 -376 -5 -308 -18 l35 -6 -42 -2 c-25 0 -43 4 -43 10 0 5 -5 7 -10 4 -6 -4 -17 -2 -25 5 -7 6 -51 13 -97 15 l-84 4 -19 -56 -19 -56 -16 49 c-15 43 -21 49 -51 55 -19 4 -46 5 -61 2 -17 -3 -28 -1 -28 6 0 7 -25 11 -70 11 l-70 0 0 -76 c0 -51 3 -73 11 -69 6 4 8 13 5 20 -2 7 1 18 7 25 9 10 9 11 -1 5 -22 -12 -10 27 16 53 14 13 34 21 50 21 l27 -2 -27 -4 c-28 -4 -39 -22 -15 -24 6 0 3 -4 -8 -9 -11 -5 -15 -9 -8 -9 8 -1 8 -10 1 -35 -6 -19 -16 -34 -22 -33 -6 1 -12 -14 -13 -33 -1 -19 1 -26 4 -16 9 35 27 45 64 36 25 -6 28 -8 10 -9 -17 -1 -21 -5 -17 -17 3 -9 6 -20 6 -25 0 -6 4 -8 9 -4 5 3 12 1 16 -5 14 -22 -27 -8 -49 17 l-23 27 -5 -27 c-6 -30 8 -38 15 -9 4 13 5 11 6 -5 0 -13 -3 -23 -9 -23 -5 0 -10 -9 -10 -19 0 -60 50 -72 75 -18 8 17 13 24 10 14 -3 -10 -5 -27 -5 -37 0 -14 -9 -20 -32 -22 -17 -2 -34 -10 -36 -18 -5 -13 -3 -13 12 -1 9 8 19 11 23 7 3 -3 1 -6 -5 -6 -15 0 -16 -94 -3 -136 5 -16 12 -46 16 -68 6 -34 8 -36 19 -21 7 10 19 15 27 12 10 -4 9 -6 -3 -6 -22 -1 -24 -39 -3 -67 8 -10 15 -23 15 -28 0 -8 -54 -4 -117 9 l-33 7 0 -421 0 -421 750 0 750 0 0 425 c0 424 0 425 -21 425 -19 0 -20 4 -14 68 3 37 9 85 12 107 7 46 7 58 5 102 -2 27 -5 31 -24 27 -21 -4 -22 -4 -3 5 31 15 33 13 38 -21 6 -36 -1 230 -6 275 -2 15 -4 41 -5 57 -1 20 -7 30 -18 30 -20 0 -74 -59 -74 -82 0 -9 -5 -20 -11 -23 -6 -4 -8 -13 -5 -20 2 -7 -1 -18 -7 -25 -9 -10 -9 -11 1 -6 17 10 38 -4 22 -14 -17 -10 -51 0 -43 13 4 6 1 7 -6 3 -7 -5 -10 -15 -7 -25 5 -12 2 -11 -9 3 -20 26 -19 39 5 54 12 7 20 18 19 25 -5 41 2 77 16 77 8 0 15 5 15 10 0 6 -20 10 -45 10 -37 0 -45 -3 -45 -18z m-185 -92 c3 -5 4 -10 1 -10 -3 0 -8 5 -11 10 -3 6 -4 10 -1 10 3 0 8 -4 11 -10z m300 -14 c12 -12 12 -15 1 -19 -8 -3 -16 2 -19 14 -6 23 -1 24 18 5z m-41 -68 c-5 -8 -2 -9 9 -5 18 7 24 -8 7 -18 -12 -7 -14 -26 -2 -24 21 4 42 -2 38 -10 -10 -16 -41 -5 -51 17 -5 12 -13 22 -17 22 -4 0 -5 7 -2 15 4 8 10 15 16 15 5 0 6 -5 2 -12z m3 -110 c-3 -8 -6 -5 -6 6 -1 11 2 17 5 13 3 -3 4 -12 1 -19z m20 -15 c-4 -3 -7 0 -7 7 0 7 3 10 7 7 3 -4 3 -10 0 -14z m-1227 -5 c0 -4 -7 -8 -15 -8 -8 0 -15 4 -15 8 0 5 7 9 15 9 8 0 15 -4 15 -9z m517 -119 c-3 -11 -1 -17 3 -14 9 6 109 -90 150 -144 49 -65 70 -78 70 -42 0 11 3 27 6 36 5 13 9 11 20 -11 8 -14 14 -33 14 -40 0 -23 -18 -16 -23 9 -4 20 -4 19 -6 -4 -1 -28 20 -54 34 -41 4 4 5 -25 1 -64 -5 -55 -4 -73 6 -77 7 -3 3 -6 -10 -6 -34 -1 -28 -53 7 -58 18 -2 21 0 13 9 -14 18 14 85 39 91 17 5 18 3 4 -16 -17 -25 -20 -73 -4 -83 6 -3 9 -15 6 -25 -3 -10 0 -20 5 -21 9 -3 13 -55 8 -98 -4 -32 14 -115 26 -122 7 -5 10 -17 6 -30 -4 -17 -2 -20 11 -15 10 4 17 2 17 -3 0 -6 -4 -10 -10 -10 -5 0 -7 -7 -4 -15 4 -9 -8 -31 -30 -55 -19 -22 -38 -51 -42 -65 -3 -14 -12 -25 -19 -25 -6 0 -25 -12 -40 -26 -26 -24 -30 -25 -41 -10 -13 18 -70 34 -59 16 3 -5 -1 -10 -10 -10 -9 0 -29 -6 -43 -14 -88 -47 -122 -53 -122 -21 0 19 -70 41 -80 26 -5 -9 -10 -8 -18 1 -6 8 -27 20 -46 28 -19 7 -32 18 -29 23 4 6 0 8 -10 4 -8 -3 -21 1 -27 8 -7 8 -16 13 -20 10 -9 -6 -20 19 -20 45 0 9 -7 23 -15 30 -8 7 -15 16 -15 21 0 11 47 12 54 1 6 -11 74 -3 82 10 3 5 -5 19 -19 32 -17 16 -22 27 -16 38 6 10 1 21 -16 36 -31 27 -25 42 25 66 22 11 40 23 40 27 0 11 -46 23 -59 15 -5 -4 -12 -2 -16 4 -3 6 4 10 17 10 13 0 29 5 36 12 9 9 12 9 12 -1 0 -24 30 -42 77 -47 27 -3 62 -9 78 -14 73 -20 85 -21 79 -5 -5 12 2 15 32 15 29 0 35 3 24 10 -8 5 -10 10 -3 10 6 0 9 9 6 20 -4 16 -2 19 11 14 12 -5 16 0 16 20 0 19 7 29 26 37 26 9 27 11 20 70 -3 34 -15 80 -25 104 -11 24 -17 53 -14 64 4 16 1 19 -16 16 -12 -2 -21 1 -21 7 0 5 6 8 14 5 25 -10 25 19 0 47 -20 20 -31 25 -51 20 -18 -5 -24 -3 -19 4 4 6 -3 16 -15 23 -12 6 -32 23 -44 36 -15 18 -36 28 -70 33 -61 9 -64 8 -94 -35 -30 -45 -36 -40 -14 11 9 21 17 44 18 49 0 6 7 9 14 7 7 -1 19 3 27 9 8 6 14 8 14 3 0 -5 5 -2 10 6 9 13 10 13 10 0 0 -8 10 -1 21 17 22 34 55 36 46 2z m331 -64 c26 -32 20 -35 -11 -6 -20 19 -33 39 -30 44 3 6 12 2 19 -9 7 -10 17 -23 22 -29z m-21 -32 c-4 -3 -7 0 -7 7 0 7 3 10 7 7 3 -4 3 -10 0 -14z m-387 -7 c0 -3 -4 -8 -10 -11 -5 -3 -10 -1 -10 4 0 6 5 11 10 11 6 0 10 -2 10 -4z m60 -6 c0 -5 -2 -10 -4 -10 -3 0 -8 5 -11 10 -3 6 -1 10 4 10 6 0 11 -4 11 -10z m308 -28 c9 -14 10 -22 4 -22 -6 0 -15 6 -19 13 -11 18 -43 29 -43 15 0 -6 -3 -9 -6 -5 -3 3 -3 10 1 16 10 17 47 6 63 -17z m29 11 c-4 -3 -7 0 -7 7 0 7 3 10 7 7 3 -4 3 -10 0 -14z m47 1 c3 -8 2 -12 -4 -9 -6 3 -10 10 -10 16 0 14 7 11 14 -7z m27 -7 c-10 -9 -11 -8 -5 6 3 10 9 15 12 12 3 -3 0 -11 -7 -18z m-191 -8 c0 -6 -4 -7 -10 -4 -5 3 -10 11 -10 16 0 6 5 7 10 4 6 -3 10 -11 10 -16z m-222 -10 c-10 -7 -10 -9 2 -10 8 -1 20 -1 25 1 18 3 -9 -18 -30 -23 -11 -3 4 -3 33 -1 49 4 52 3 43 -14 -8 -15 -23 -19 -71 -21 -60 -2 -75 8 -42 29 12 8 13 13 5 16 -7 3 -13 10 -13 16 0 6 6 6 15 -2 13 -10 15 -9 15 8 0 15 4 20 16 15 13 -5 13 -7 2 -14z m363 -6 c13 -16 12 -17 -3 -4 -10 7 -18 15 -18 17 0 8 8 3 21 -13z m-31 -73 c0 -12 -4 -19 -10 -15 -5 3 -7 11 -4 18 2 7 -7 24 -21 37 -14 13 -25 28 -25 33 0 4 14 -5 30 -21 17 -17 30 -40 30 -52z m67 63 c-4 -3 -7 0 -7 7 0 7 3 10 7 7 3 -4 3 -10 0 -14z m101 -23 c3 -7 0 -10 -7 -6 -6 4 -11 2 -11 -5 0 -8 -4 -8 -15 1 -13 11 -13 15 -3 21 16 11 30 7 36 -11z m-353 0 c-3 -5 -12 -7 -20 -3 -21 7 -19 13 6 13 11 0 18 -4 14 -10z m213 -15 c-3 -3 -9 2 -12 12 -6 14 -5 15 5 6 7 -7 10 -15 7 -18z m67 15 c3 -5 4 -10 1 -10 -3 0 -8 5 -11 10 -3 6 -4 10 -1 10 3 0 8 -4 11 -10z m-20 -20 c3 -5 4 -10 1 -10 -3 0 -8 5 -11 10 -3 6 -4 10 -1 10 3 0 8 -4 11 -10z m-290 -170 c-3 -5 -10 -10 -16 -10 -5 0 -9 5 -9 10 0 6 7 10 16 10 8 0 12 -4 9 -10z m-53 -7 c-6 -2 -10 -9 -6 -14 3 -5 -6 -9 -20 -9 -32 0 -43 17 -14 23 33 6 56 7 40 0z m65 -19 c-3 -3 -12 -4 -19 -1 -8 3 -5 6 6 6 11 1 17 -2 13 -5z m-292 -14 c-3 -5 -11 -10 -16 -10 -6 0 -7 5 -4 10 3 6 11 10 16 10 6 0 7 -4 4 -10z m442 -7 c-4 -3 -7 0 -7 7 0 7 3 10 7 7 3 -4 3 -10 0 -14z m-522 -153 c3 5 12 10 18 10 8 0 8 -3 -1 -9 -10 -6 -6 -10 14 -15 26 -7 27 -9 10 -18 -20 -11 -66 4 -66 22 0 6 -5 8 -12 4 -7 -4 -8 -3 -4 5 6 9 11 9 21 1 9 -8 15 -8 20 0z m-48 -67 c-4 -3 -7 0 -7 7 0 7 3 10 7 7 3 -4 3 -10 0 -14z m49 -35 c19 -22 19 -22 0 -8 -18 14 -19 13 -13 -2 4 -12 2 -15 -9 -11 -10 4 -12 9 -4 18 5 6 7 15 3 18 -3 4 -4 7 -1 7 3 0 13 -10 24 -22z m-56 8 c0 -3 -5 -8 -12 -12 -7 -4 -8 -3 -4 4 7 12 16 16 16 8z m-5 -36 c3 -5 4 -10 1 -10 -3 0 -8 5 -11 10 -3 6 -4 10 -1 10 3 0 8 -4 11 -10z m55 -56 c0 -2 -11 2 -25 8 -14 6 -25 15 -25 20 0 5 11 1 25 -8 14 -9 25 -18 25 -20z m-30 -15 c0 -5 -6 -8 -12 -6 -7 1 -12 -5 -10 -13 3 -11 1 -12 -8 -3 -10 9 -9 15 1 26 14 15 29 13 29 -4z m20 -65 c0 -2 -9 0 -20 6 -11 6 -20 13 -20 16 0 2 9 0 20 -6 11 -6 20 -13 20 -16z m248 -168 c3 -15 0 -16 -16 -7 -11 6 -23 7 -27 3 -5 -4 -5 -1 -1 6 4 6 2 12 -3 12 -6 0 -11 4 -11 9 0 17 55 -5 58 -23z"/>
<path d="M898 775 c2 -19 6 -35 8 -35 2 0 4 16 4 35 0 19 -4 35 -8 35 -4 0 -6 -16 -4 -35z"/>
<path d="M910 691 c0 -5 5 -13 10 -16 6 -3 10 -2 10 4 0 5 -4 13 -10 16 -5 3 -10 2 -10 -4z"/>
<path d="M977 545 c-4 -8 -2 -17 3 -20 6 -4 10 3 10 14 0 25 -6 27 -13 6z"/>
<path d="M708 413 c7 -3 16 -2 19 1 4 3 -2 6 -13 5 -11 0 -14 -3 -6 -6z"/>
<path d="M1030 300 c0 -7 3 -10 7 -7 3 4 3 10 0 14 -4 3 -7 0 -7 -7z"/>
<path d="M575 239 c-11 -17 1 -21 15 -4 8 9 8 15 2 15 -6 0 -14 -5 -17 -11z"/>
<path d="M510 200 c0 -5 4 -10 9 -10 6 0 13 5 16 10 3 6 -1 10 -9 10 -9 0 -16 -4 -16 -10z"/>
<path d="M433 193 c4 -3 10 -3 14 0 3 4 0 7 -7 7 -7 0 -10 -3 -7 -7z"/>
<path d="M600 164 c0 -9 7 -14 17 -12 25 5 28 28 4 28 -12 0 -21 -6 -21 -16z"/>
<path d="M900 90 c0 -7 3 -10 7 -7 3 4 3 10 0 14 -4 3 -7 0 -7 -7z"/>
<path d="M553 1453 c4 -3 10 -3 14 0 3 4 0 7 -7 7 -7 0 -10 -3 -7 -7z"/>
</g>
<g id="layer103" fill="#515151" stroke="none">
<path d="M1290 1482 c0 -25 -40 -42 -95 -42 -29 0 -45 -4 -45 -12 0 -9 -3 -9 -9 1 -7 11 -54 15 -233 17 -235 4 -375 -4 -308 -17 l35 -6 -44 -2 c-40 -1 -111 -33 -119 -53 -2 -4 -11 -8 -20 -8 -14 0 -15 2 -2 10 8 5 12 12 9 15 -9 8 -59 -60 -59 -79 0 -9 -8 -16 -17 -17 -15 0 -15 -2 2 -9 11 -5 15 -9 9 -9 -7 -1 -15 -17 -18 -36 -8 -42 -33 -47 -42 -7 -4 15 -14 33 -23 40 -14 10 -13 11 4 5 18 -6 19 -5 5 13 -8 10 -10 16 -6 12 8 -7 44 33 67 75 17 30 0 18 -22 -15 l-21 -33 5 45 c3 25 8 53 12 63 5 12 2 17 -8 17 -9 0 -18 -13 -22 -30 -4 -16 -11 -32 -16 -35 -5 -4 -9 -19 -9 -35 0 -16 -4 -31 -10 -35 -5 -3 -8 7 -5 25 4 30 -10 86 -25 103 -4 5 -64 11 -134 14 l-126 5 0 -51 c0 -49 10 -65 26 -39 5 7 3 8 -5 4 -21 -14 -8 27 17 52 14 13 34 21 50 21 l27 -2 -27 -4 c-28 -4 -39 -22 -15 -24 6 0 3 -4 -8 -9 -11 -5 -15 -9 -8 -9 8 -1 8 -10 1 -35 -11 -34 -25 -41 -40 -21 -5 6 -8 6 -8 -1 0 -19 30 -40 38 -27 5 8 19 9 42 3 26 -6 29 -8 11 -9 -17 -1 -21 -5 -17 -17 3 -9 6 -20 6 -25 0 -6 4 -8 9 -4 5 3 12 1 16 -5 12 -20 -26 -10 -48 13 -12 12 -19 18 -15 13 5 -6 8 -17 8 -26 0 -9 9 -33 20 -54 l19 -38 16 33 c8 19 13 26 10 16 -3 -10 -5 -27 -5 -38 0 -10 -5 -19 -11 -19 -36 0 -51 -78 -29 -159 5 -20 12 -49 15 -64 5 -24 8 -27 20 -17 8 7 20 10 27 7 8 -4 7 -6 -4 -6 -22 -1 -24 -39 -3 -67 8 -10 15 -23 15 -28 0 -8 -54 -4 -117 9 l-33 7 0 -421 0 -421 750 0 750 0 0 425 0 425 -21 0 c-20 0 -21 4 -16 48 4 26 10 95 13 154 l7 107 -24 -5 -24 -5 23 11 c13 5 27 8 30 6 9 -5 2 97 -7 104 -11 8 -35 64 -32 77 2 17 -16 25 -35 15 -14 -8 -14 -10 0 -21 9 -8 16 -20 16 -27 0 -8 7 -14 16 -14 9 0 12 -5 8 -12 -5 -8 -14 -2 -29 16 -12 15 -28 27 -36 26 -31 -5 -50 0 -43 12 5 7 3 8 -5 4 -7 -5 -10 -15 -7 -25 5 -12 2 -11 -9 3 -20 26 -19 39 5 54 12 7 20 18 19 25 -5 41 2 77 16 77 8 0 15 5 15 10 0 6 -20 10 -45 10 -37 0 -45 -3 -45 -18z m-185 -92 c3 -5 4 -10 1 -10 -3 0 -8 5 -11 10 -3 6 -4 10 -1 10 3 0 8 -4 11 -10z m259 -82 c-5 -8 -2 -9 9 -5 18 7 24 -8 7 -18 -12 -7 -14 -26 -2 -24 21 4 42 -2 38 -10 -10 -16 -41 -5 -51 17 -5 12 -13 22 -17 22 -4 0 -5 7 -2 15 4 8 10 15 16 15 5 0 6 -5 2 -12z m106 -52 c0 -3 -4 -8 -10 -11 -5 -3 -10 -1 -10 4 0 6 5 11 10 11 6 0 10 -2 10 -4z m-103 -58 c-3 -8 -6 -5 -6 6 -1 11 2 17 5 13 3 -3 4 -12 1 -19z m20 -15 c-4 -3 -7 0 -7 7 0 7 3 10 7 7 3 -4 3 -10 0 -14z m-1227 -5 c0 -4 -7 -8 -15 -8 -8 0 -15 4 -15 8 0 5 7 9 15 9 8 0 15 -4 15 -9z m607 -22 c-88 -60 -95 -66 -90 -87 3 -11 16 -26 29 -31 13 -6 24 -17 24 -25 0 -7 4 -13 9 -13 5 0 39 -35 76 -77 37 -43 71 -79 74 -81 4 -1 8 10 9 25 1 22 0 25 -9 13 -9 -12 -10 -11 -6 7 3 13 -1 24 -10 27 -8 4 -13 12 -10 20 3 7 -5 24 -17 37 -26 28 -39 59 -26 59 5 0 9 10 7 23 -1 13 3 22 11 22 14 0 29 -23 57 -87 9 -21 20 -39 25 -39 6 -1 15 -2 21 -3 16 -2 45 -46 30 -46 -6 0 -14 7 -17 15 -4 8 -10 15 -15 15 -17 0 -9 -19 21 -48 27 -28 44 -82 20 -67 -5 3 -7 11 -4 18 2 7 -7 24 -22 37 l-26 25 9 -30 c4 -16 7 -67 7 -112 -1 -60 2 -83 12 -87 7 -3 16 3 19 13 3 11 14 21 25 24 18 5 19 3 5 -16 -16 -23 -20 -73 -7 -81 15 -9 34 -114 24 -132 -6 -11 -6 -30 -1 -48 5 -17 9 -43 9 -57 0 -15 6 -29 14 -32 9 -4 12 -14 9 -28 -5 -18 -3 -21 10 -16 10 4 17 2 17 -3 0 -6 -4 -10 -10 -10 -5 0 -7 -7 -4 -15 4 -9 -8 -31 -30 -55 -19 -22 -38 -51 -42 -65 -3 -14 -12 -25 -19 -25 -6 0 -25 -12 -40 -26 -26 -24 -30 -25 -40 -10 -7 9 -20 16 -29 16 -20 0 -98 -38 -107 -53 -8 -12 -101 -22 -124 -14 -8 4 -18 6 -22 6 -4 -1 -13 12 -20 28 -7 15 -12 22 -13 14 0 -12 -3 -12 -17 1 -10 8 -33 21 -50 29 -18 8 -33 18 -33 22 0 5 -4 6 -9 3 -5 -3 -14 1 -21 9 -7 8 -16 12 -21 9 -5 -3 -12 8 -15 24 -4 19 -16 34 -32 42 -21 9 -23 13 -11 21 12 7 11 9 -3 9 -9 0 -20 5 -23 10 -7 12 20 42 29 33 3 -4 6 -1 6 5 0 7 -4 12 -10 12 -5 0 -10 5 -10 11 0 5 4 7 10 4 6 -3 7 1 4 9 -3 9 -10 14 -14 11 -5 -3 -12 -1 -15 5 -4 6 -3 9 2 8 4 -1 18 3 30 10 19 10 23 9 28 -8 6 -20 16 -25 28 -13 4 3 -1 12 -12 19 -10 7 -18 24 -17 36 1 18 8 24 34 26 18 2 36 10 39 18 3 8 17 14 32 14 23 1 24 2 8 11 -10 6 -27 9 -38 6 -10 -3 -22 -1 -25 4 -3 5 5 9 18 9 13 0 29 5 36 12 9 9 12 9 12 -1 0 -31 31 -42 198 -68 20 -3 32 -1 32 6 0 6 17 11 38 11 25 0 33 3 23 9 -7 5 -11 13 -8 18 8 13 17 63 11 63 -3 0 -9 -10 -14 -22 -8 -20 -9 -17 -10 17 -1 101 4 93 -59 100 -31 4 -63 8 -71 9 -8 1 -25 8 -37 14 -19 10 -23 10 -24 0 -1 -17 -27 121 -28 150 -1 15 3 21 11 16 6 -4 8 -3 5 4 -16 25 -82 -16 -74 -47 4 -17 2 -18 -14 -8 -11 7 -19 23 -19 39 0 16 -4 28 -10 28 -5 0 -10 -4 -10 -10 0 -5 -4 -10 -9 -10 -11 0 4 60 17 69 5 3 22 36 39 72 31 66 47 79 106 83 4 1 23 21 42 46 67 86 67 86 99 82 25 -4 27 -6 13 -16z m41 -125 c-14 -24 -49 -34 -63 -20 -7 7 -5 8 6 4 9 -3 23 3 34 15 23 25 39 26 23 1z m200 -36 c26 -32 20 -35 -11 -6 -20 19 -33 39 -30 44 3 6 12 2 19 -9 7 -10 17 -23 22 -29z m-21 -32 c-4 -3 -7 0 -7 7 0 7 3 10 7 7 3 -4 3 -10 0 -14z m10 -30 c-4 -3 -7 0 -7 7 0 7 3 10 7 7 3 -4 3 -10 0 -14z m47 1 c3 -8 2 -12 -4 -9 -6 3 -10 10 -10 16 0 14 7 11 14 -7z m27 -7 c-10 -9 -11 -8 -5 6 3 10 9 15 12 12 3 -3 0 -11 -7 -18z m-50 -24 c13 -16 12 -17 -3 -4 -10 7 -18 15 -18 17 0 8 8 3 21 -13z m36 -10 c-4 -3 -7 0 -7 7 0 7 3 10 7 7 3 -4 3 -10 0 -14z m101 -23 c3 -7 0 -10 -7 -6 -6 4 -11 2 -11 -5 0 -8 -4 -8 -15 1 -13 11 -13 15 -3 21 16 11 30 7 36 -11z m-140 -15 c-3 -3 -9 2 -12 12 -6 14 -5 15 5 6 7 -7 10 -15 7 -18z m67 15 c3 -5 4 -10 1 -10 -3 0 -8 5 -11 10 -3 6 -4 10 -1 10 3 0 8 -4 11 -10z m-20 -20 c3 -5 4 -10 1 -10 -3 0 -8 5 -11 10 -3 6 -4 10 -1 10 3 0 8 -4 11 -10z m-598 -47 c-4 -3 -10 -3 -14 0 -3 4 0 7 7 7 7 0 10 -3 7 -7z m-17 -40 c0 -21 -3 -24 -9 -14 -5 8 -7 20 -4 28 8 21 13 15 13 -14z m116 -88 c9 -8 11 -15 6 -15 -5 0 -15 7 -22 15 -7 8 -9 15 -6 15 4 0 14 -7 22 -15z m-32 -10 c4 -12 -7 -21 -40 -35 -54 -24 -51 -23 -51 -6 0 8 11 19 24 25 13 6 23 15 23 21 0 16 37 12 44 -5z m-119 -185 c3 5 12 10 18 10 8 0 8 -3 -1 -9 -10 -6 -6 -10 14 -15 26 -7 27 -9 10 -18 -12 -7 -25 -7 -42 0 -18 9 -22 8 -18 -2 3 -8 0 -17 -7 -22 -9 -5 -10 1 -6 25 5 23 3 30 -5 25 -7 -4 -8 -3 -4 5 6 9 11 9 21 1 9 -8 15 -8 20 0z m-15 -88 c0 -1 -9 2 -20 8 -11 6 -20 15 -20 20 0 6 9 2 20 -7 11 -10 20 -19 20 -21z m-40 -6 c0 -3 -5 -8 -12 -12 -7 -4 -8 -3 -4 4 7 12 16 16 16 8z"/>
<path d="M554 963 c-14 -13 -22 -28 -19 -33 3 -6 1 -10 -5 -10 -6 0 -9 -4 -5 -9 3 -5 1 -12 -5 -16 -5 -3 -10 -10 -10 -16 0 -15 19 -10 42 11 12 11 34 20 50 20 15 0 28 4 28 9 0 13 -37 24 -51 15 -7 -4 -10 -1 -7 7 7 21 79 24 94 4 7 -10 18 -15 24 -13 7 2 4 13 -10 30 -27 35 -89 35 -126 1z"/>
<path d="M690 905 c0 -8 6 -12 13 -9 21 8 36 -18 26 -44 -5 -13 -13 -20 -19 -17 -5 3 -10 0 -10 -8 0 -8 -6 -17 -14 -20 -17 -7 -55 -83 -47 -95 3 -6 23 -13 44 -17 30 -6 37 -4 37 9 0 11 9 16 30 16 17 0 30 -5 30 -10 0 -6 11 -3 24 7 13 10 21 23 18 28 -3 6 2 4 12 -4 16 -13 17 -12 10 15 -4 16 -18 42 -31 57 -12 16 -23 34 -23 40 0 7 -9 18 -20 25 -11 7 -20 18 -20 25 0 6 -14 13 -30 14 -20 2 -30 -2 -30 -12z"/>
<path d="M575 890 c-8 -13 8 -18 30 -9 11 4 18 8 15 9 -23 7 -41 7 -45 0z"/>
<path d="M623 803 c4 -3 10 -3 14 0 3 4 0 7 -7 7 -7 0 -10 -3 -7 -7z"/>
<path d="M855 700 c3 -5 8 -10 11 -10 3 0 2 5 -1 10 -3 6 -8 10 -11 10 -3 0 -2 -4 1 -10z"/>
<path d="M830 460 c0 -7 3 -10 7 -7 3 4 3 10 0 14 -4 3 -7 0 -7 -7z"/>
<path d="M432 319 c-32 -12 -25 -45 8 -41 30 3 38 11 21 21 -7 5 -10 14 -7 20 8 13 8 13 -22 0z"/>
<path d="M355 270 c-3 -5 -1 -10 4 -10 6 0 11 5 11 10 0 6 -2 10 -4 10 -3 0 -8 -4 -11 -10z"/>
<path d="M1392 1480 c0 -14 2 -19 5 -12 2 6 2 18 0 25 -3 6 -5 1 -5 -13z"/>
<path d="M1396 1415 c3 -11 7 -26 7 -32 0 -7 4 -13 9 -13 12 0 9 11 -8 40 -10 17 -13 18 -8 5z"/>
<path d="M1364 1348 c-4 -7 -3 -8 4 -4 12 7 16 16 8 16 -3 0 -8 -5 -12 -12z"/>
</g>
<g id="layer104" fill="#707070" stroke="none">
<path d="M1290 1482 c0 -25 -40 -42 -95 -42 -40 0 -61 -13 -35 -22 6 -2 7 -38 2 -98 -6 -77 -10 -95 -24 -98 -10 -2 -19 6 -23 20 -4 13 -15 31 -25 40 -10 9 -20 23 -23 30 -2 8 -8 9 -13 4 -5 -5 -4 -11 4 -13 6 -3 12 -9 12 -15 0 -5 10 -24 22 -41 l23 -32 -28 18 c-15 9 -27 14 -27 10 0 -5 -8 8 -18 27 -19 38 -136 159 -137 141 0 -7 -50 11 -55 20 -9 14 -142 22 -216 13 -62 -7 -66 -8 -34 -15 l35 -6 -44 -2 c-40 -1 -111 -33 -119 -53 -2 -4 -12 -8 -21 -8 -27 0 -49 -30 -56 -77 -8 -57 -30 -118 -41 -116 -5 1 -14 21 -21 45 -6 24 -12 44 -12 45 -1 1 -12 -8 -26 -21 -29 -27 -74 -44 -55 -21 7 8 8 20 4 26 -4 7 -7 32 -5 55 1 23 -3 45 -9 49 -5 3 -10 15 -10 26 0 10 -4 19 -8 19 -4 0 -8 9 -9 20 -1 11 3 20 10 20 7 0 7 3 2 9 -19 19 -155 10 -155 -10 0 -5 6 -9 13 -10 6 0 3 -4 -8 -9 -11 -5 -15 -9 -8 -9 9 -1 9 -9 1 -32 -12 -35 -1 -48 42 -49 20 0 22 -2 10 -10 -9 -6 -10 -10 -3 -10 6 0 19 -14 27 -32 13 -25 14 -33 4 -40 -10 -6 -10 -8 -1 -8 7 0 10 -6 7 -14 -3 -9 2 -16 13 -18 12 -3 2 -12 -34 -28 l-53 -24 0 -49 c0 -27 4 -66 10 -86 5 -20 12 -49 15 -64 5 -24 8 -27 20 -17 8 7 20 10 27 7 8 -4 7 -6 -4 -6 -22 -1 -24 -39 -3 -67 8 -10 15 -23 15 -28 0 -8 -54 -4 -118 10 l-32 6 2 -418 3 -419 748 -3 747 -2 0 425 0 425 -21 0 c-20 0 -21 4 -15 53 3 28 8 87 12 130 l6 77 -35 0 c-30 0 -34 3 -30 20 4 15 11 18 34 13 16 -3 29 -1 29 4 0 4 -23 8 -51 8 -65 0 -78 8 -54 32 10 10 21 16 24 13 3 -3 7 2 9 11 2 9 -9 24 -23 33 -14 9 -25 23 -25 31 0 8 -4 15 -10 15 -5 0 -7 7 -4 15 4 8 10 15 16 15 5 0 6 -5 2 -12 -5 -8 -2 -9 9 -5 18 7 24 -8 7 -18 -12 -7 -14 -26 -2 -24 20 3 43 -2 38 -9 -2 -4 1 -15 8 -25 11 -15 13 -12 11 21 -2 47 -21 84 -43 81 -36 -3 -53 1 -46 13 5 7 3 8 -5 4 -7 -5 -10 -15 -7 -25 5 -12 2 -11 -9 3 -20 26 -19 39 5 54 12 7 20 18 19 25 -5 41 2 77 16 77 8 0 15 5 15 10 0 6 -20 10 -45 10 -37 0 -45 -3 -45 -18z m-95 -232 c3 -5 4 -10 1 -10 -3 0 -8 5 -11 10 -3 6 -4 10 -1 10 3 0 8 -4 11 -10z m-878 -37 c-4 -3 -7 0 -7 7 0 7 3 10 7 7 3 -4 3 -10 0 -14z m758 7 c3 -6 -1 -7 -9 -4 -18 7 -21 14 -7 14 6 0 13 -4 16 -10z m242 -7 c-4 -3 -10 -3 -14 0 -3 4 0 7 7 7 7 0 10 -3 7 -7z m53 -9 c0 -8 -4 -12 -10 -9 -5 3 -10 10 -10 16 0 5 5 9 10 9 6 0 10 -7 10 -16z m-592 -53 c3 -15 0 -21 -8 -16 -6 4 -17 0 -23 -9 -7 -9 -23 -22 -37 -29 -40 -20 -36 -43 10 -67 l42 -21 26 23 c15 13 32 30 39 38 11 13 15 12 33 -10 11 -14 20 -30 20 -36 0 -6 7 -25 16 -42 14 -30 23 -36 49 -34 15 2 76 -83 78 -107 1 -11 7 -23 14 -25 7 -3 13 -15 13 -26 0 -11 5 -20 11 -20 5 0 7 -4 4 -10 -3 -6 1 -7 9 -4 9 3 16 1 16 -5 0 -6 -5 -11 -11 -11 -6 0 -2 -12 9 -27 10 -16 22 -37 26 -47 5 -16 4 -17 -9 -6 -13 11 -15 9 -15 -13 0 -19 4 -25 15 -21 8 4 15 2 15 -4 0 -10 -46 -22 -86 -22 -23 0 -32 14 -16 24 9 5 15 86 7 86 -2 0 -12 -14 -21 -32 -15 -30 -15 -35 1 -80 15 -42 20 -91 15 -138 -4 -32 14 -115 26 -122 7 -5 10 -17 6 -30 -4 -17 -2 -20 11 -15 10 4 17 2 17 -3 0 -6 -4 -10 -10 -10 -5 0 -7 -7 -4 -15 4 -9 -8 -31 -30 -55 -19 -22 -38 -51 -42 -65 -3 -14 -12 -25 -19 -25 -6 0 -25 -12 -40 -26 -26 -24 -30 -25 -40 -10 -14 19 -48 21 -67 3 -45 -41 -63 -51 -108 -58 -32 -5 -62 -4 -83 3 -37 14 -59 32 -49 43 4 5 2 5 -5 1 -6 -3 -14 -2 -18 3 -3 6 -37 25 -75 43 -43 20 -73 41 -76 53 -4 11 -22 35 -40 53 -34 33 -45 58 -21 49 15 -6 11 59 -5 69 -5 3 -4 12 4 22 11 13 11 15 -2 8 -11 -6 -11 -4 1 6 9 7 15 24 14 38 -1 14 0 30 4 35 3 6 6 13 7 18 1 4 2 10 3 13 0 4 7 1 15 -5 10 -8 16 -9 21 -1 3 5 12 10 18 10 8 0 8 -3 -1 -9 -10 -6 -8 -10 8 -14 16 -4 20 -2 16 9 -4 10 2 14 17 14 13 0 28 5 35 12 9 9 12 9 12 -1 0 -15 20 -35 40 -39 19 -5 103 -20 153 -28 24 -5 37 -3 37 5 0 6 -6 10 -12 9 -9 -2 -12 10 -10 42 2 34 -3 51 -19 69 -17 21 -22 22 -30 10 -6 -9 -8 -1 -6 28 2 23 0 40 -5 37 -4 -3 -8 -12 -8 -21 0 -14 -4 -13 -22 4 -13 11 -29 19 -36 17 -7 -1 -8 0 -2 3 15 7 12 20 -5 20 -8 0 -15 -4 -15 -7 0 -4 -10 -7 -23 -7 -12 0 -44 -10 -71 -22 -66 -31 -88 -25 -53 13 15 16 27 35 27 42 0 20 91 23 98 3 6 -16 32 -9 31 9 -1 44 -26 147 -35 143 -31 -12 -45 -31 -39 -51 6 -19 5 -20 -14 -8 -13 8 -21 23 -21 40 0 16 -4 28 -9 28 -13 0 -22 -28 -10 -34 5 -2 4 -3 -3 -2 -21 5 -10 49 33 136 40 80 61 99 112 103 10 1 34 23 53 49 53 74 67 87 94 85 18 -1 26 -9 28 -26z m-691 -88 c-4 -3 -7 0 -7 7 0 7 3 10 7 7 3 -4 3 -10 0 -14z m922 -69 c16 -20 53 -96 48 -101 -3 -2 -14 16 -26 41 -20 46 -34 57 -45 34 -3 -7 -4 -4 -1 8 3 12 -1 27 -10 34 -8 7 -12 17 -8 23 4 6 11 3 19 -9 7 -10 18 -24 23 -30z m21 -101 c-1 -11 -40 37 -40 49 0 6 9 -1 20 -15 11 -14 20 -29 20 -34z m41 34 c-10 -9 -11 -8 -5 6 3 10 9 15 12 12 3 -3 0 -11 -7 -18z m87 -57 c3 -7 0 -10 -7 -6 -6 4 -11 2 -11 -5 0 -8 -4 -8 -15 1 -13 11 -13 15 -3 21 16 11 30 7 36 -11z m-101 4 c-3 -3 -12 -4 -19 -1 -8 3 -5 6 6 6 11 1 17 -2 13 -5z m28 -4 c3 -5 4 -10 1 -10 -3 0 -8 5 -11 10 -3 6 -4 10 -1 10 3 0 8 -4 11 -10z m-14 -27 c13 -16 12 -17 -3 -4 -10 7 -18 15 -18 17 0 8 8 3 21 -13z m34 -3 c3 -5 4 -10 1 -10 -3 0 -8 5 -11 10 -3 6 -4 10 -1 10 3 0 8 -4 11 -10z m-655 -77 c0 -21 -3 -24 -9 -14 -5 8 -7 20 -4 28 8 21 13 15 13 -14z"/>
<path d="M800 1020 c0 -7 3 -10 7 -7 3 4 3 10 0 14 -4 3 -7 0 -7 -7z"/>
<path d="M536 927 c-11 -23 -22 -45 -24 -49 -9 -18 24 -6 36 12 7 11 18 20 26 20 8 0 16 6 19 14 4 10 0 12 -14 9 -24 -7 -25 12 -1 26 16 10 15 10 -3 11 -14 0 -26 -13 -39 -43z"/>
<path d="M930 922 c0 -4 6 -14 13 -21 8 -9 9 -15 1 -18 -15 -5 4 -103 19 -100 6 1 14 -14 17 -33 3 -23 8 -31 13 -22 9 13 1 64 -14 92 -13 25 -22 54 -20 64 3 15 -10 46 -20 46 -5 0 -9 -4 -9 -8z"/>
<path d="M689 783 c-9 -10 -16 -28 -17 -41 -1 -20 2 -22 41 -16 23 4 44 8 46 10 1 1 -1 15 -6 31 -11 33 -43 41 -64 16z"/>
<path d="M960 710 c0 -7 3 -10 7 -7 3 4 3 10 0 14 -4 3 -7 0 -7 -7z"/>
<path d="M750 615 c-10 -12 -10 -15 3 -15 19 0 31 16 18 24 -5 3 -14 -1 -21 -9z"/>
<path d="M473 473 c4 -3 10 -3 14 0 3 4 0 7 -7 7 -7 0 -10 -3 -7 -7z"/>
<path d="M424 305 c-17 -13 -17 -14 -2 -15 9 0 20 5 23 11 11 17 0 20 -21 4z"/>
<path d="M14 1438 c-4 -7 -3 -8 4 -4 12 7 16 16 8 16 -3 0 -8 -5 -12 -12z"/>
<path d="M337 1443 c-4 -3 -7 -13 -7 -22 1 -13 3 -13 11 2 11 19 8 33 -4 20z"/>
<path d="M930 1430 c14 -4 22 -8 18 -9 -13 -2 25 -41 39 -41 7 0 13 -3 13 -7 0 -5 9 -19 21 -33 l20 -25 -18 37 c-10 20 -26 39 -36 42 -10 2 -21 14 -24 25 -4 15 -13 21 -32 20 l-26 -1 25 -8z"/>
<path d="M227 1405 c3 -8 9 -12 14 -9 12 7 11 11 -5 17 -10 4 -13 1 -9 -8z"/>
<path d="M312 1378 c-14 -14 -16 -58 -3 -58 10 0 26 58 19 66 -2 2 -10 -2 -16 -8z"/>
<path d="M14 1368 c-4 -7 -3 -8 4 -4 7 4 12 9 12 12 0 8 -9 4 -16 -8z"/>
<path d="M270 1350 c0 -7 3 -10 7 -7 3 4 3 10 0 14 -4 3 -7 0 -7 -7z"/>
</g>
<g id="layer105" fill="#919191" stroke="none">
<path d="M1290 1482 c0 -25 -40 -42 -95 -42 -25 0 -45 -4 -45 -10 0 -5 4 -10 10 -10 11 0 2 -172 -11 -207 -12 -32 -34 -29 -59 7 -12 17 -25 28 -29 26 -4 -3 -13 9 -20 26 -15 34 -135 157 -136 139 0 -7 -50 11 -55 20 -9 14 -142 22 -216 13 -62 -7 -66 -8 -34 -15 l35 -6 -44 -2 c-40 -1 -111 -33 -119 -53 -2 -4 -12 -8 -21 -8 -30 0 -48 -31 -59 -103 -12 -77 -61 -192 -62 -145 0 15 -4 29 -8 32 -5 3 -8 27 -8 54 l1 50 -25 -18 c-14 -9 -62 -32 -107 -51 -53 -22 -81 -39 -78 -47 3 -9 0 -10 -15 -2 -32 17 -23 -4 17 -40 20 -19 34 -27 31 -19 -3 8 0 23 8 34 12 17 14 17 14 2 0 -9 5 -17 10 -17 6 0 10 -4 10 -10 0 -5 -7 -10 -15 -10 -8 0 -15 -9 -15 -20 0 -11 5 -20 10 -20 16 0 -11 -37 -37 -51 -24 -13 -31 -43 -11 -55 6 -4 8 -3 5 4 -5 6 1 8 15 4 19 -5 20 -7 5 -10 -21 -4 -23 -41 -2 -68 8 -10 15 -23 15 -28 0 -8 -54 -4 -117 9 l-33 7 0 -414 0 -415 388 -6 c213 -3 550 -6 750 -7 l362 0 0 423 0 423 -35 0 c-22 0 -31 -4 -26 -9 6 -6 4 -19 -6 -34 -12 -18 -18 -21 -24 -11 -6 9 -12 8 -28 -6 -26 -24 -26 -16 -1 34 11 22 17 40 13 40 -5 0 -1 5 7 11 13 9 13 10 -2 6 -9 -3 -24 1 -35 9 -10 9 -12 13 -5 9 17 -9 52 4 52 20 0 7 7 15 15 19 21 8 19 66 -2 82 -10 7 -13 14 -6 14 6 0 18 -7 27 -15 9 -10 17 -11 21 -5 3 6 -1 13 -10 16 -9 4 -14 13 -10 21 3 10 1 13 -9 10 -33 -13 -23 8 11 24 l38 18 -35 2 c-19 1 -41 2 -48 2 -9 -1 -8 5 4 18 19 22 17 28 -16 34 -28 5 -39 16 -22 22 6 3 12 9 12 14 0 13 -23 6 -37 -11 -6 -8 -15 -12 -19 -7 -4 4 -2 7 4 7 11 0 9 50 -3 70 -3 5 -8 33 -10 62 -3 43 -1 54 16 66 11 7 19 19 18 25 -5 41 2 77 16 77 8 0 15 5 15 10 0 6 -11 10 -24 10 -17 0 -27 -8 -34 -27 l-10 -28 -1 28 c-1 30 -21 38 -21 9z m50 -32 c0 -11 -4 -20 -9 -20 -5 0 -7 9 -4 20 3 11 7 20 9 20 2 0 4 -9 4 -20z m-145 -200 c3 -5 4 -10 1 -10 -3 0 -8 5 -11 10 -3 6 -4 10 -1 10 3 0 8 -4 11 -10z m-120 -30 c3 -6 -1 -7 -9 -4 -18 7 -21 14 -7 14 6 0 13 -4 16 -10z m242 -7 c-4 -3 -10 -3 -14 0 -3 4 0 7 7 7 7 0 10 -3 7 -7z m-504 -68 c20 -20 37 -40 37 -45 0 -16 54 -120 62 -120 4 0 8 8 8 18 1 9 10 0 22 -23 11 -22 28 -49 38 -60 10 -11 33 -49 52 -84 24 -48 40 -66 60 -72 28 -7 91 -51 121 -84 10 -11 16 -14 12 -7 -3 6 1 15 9 18 12 5 11 10 -9 30 -43 42 -27 48 19 7 26 -22 28 -27 14 -37 -8 -6 -14 -19 -12 -29 4 -27 -54 -45 -154 -49 l-87 -3 13 -54 c9 -35 11 -61 5 -75 -5 -12 -6 -32 -2 -46 4 -14 7 -39 8 -56 1 -18 7 -34 15 -37 9 -4 12 -14 9 -28 -5 -18 -3 -21 10 -16 10 4 17 2 17 -3 0 -6 -4 -10 -10 -10 -5 0 -7 -7 -4 -15 4 -9 -8 -31 -30 -55 -19 -22 -38 -51 -42 -65 -3 -14 -12 -25 -19 -25 -6 0 -25 -12 -40 -26 -26 -24 -30 -25 -41 -9 -9 12 -19 15 -36 9 -13 -4 -27 -7 -31 -6 -5 1 -6 -1 -4 -5 3 -5 -1 -17 -8 -27 -10 -13 -36 -21 -88 -29 -68 -10 -77 -9 -108 10 -19 11 -33 26 -31 32 1 7 -2 10 -7 7 -5 -4 -12 -2 -16 3 -3 6 -37 25 -75 43 -43 20 -73 41 -76 53 -4 11 -22 35 -40 53 -34 33 -43 52 -24 52 14 0 13 53 -2 68 -9 9 -9 17 0 34 6 13 14 38 17 57 8 45 14 54 30 41 7 -6 16 -7 19 -2 3 5 22 9 42 10 20 1 43 7 50 13 11 9 14 9 14 0 0 -20 28 -43 32 -29 3 9 10 7 24 -6 17 -18 19 -18 22 -3 2 10 8 14 14 11 6 -4 13 -1 17 5 4 6 22 13 39 14 19 1 32 8 32 15 0 8 -5 10 -12 6 -10 -6 -10 -4 0 7 17 18 15 32 -3 25 -12 -4 -15 3 -13 34 1 22 -2 43 -5 47 -4 3 -7 -2 -7 -12 0 -17 -1 -17 -18 -2 -23 21 -41 21 -66 2 -17 -13 -22 -13 -37 1 -15 14 -21 14 -46 1 -15 -8 -42 -17 -58 -20 l-31 -6 -2 56 c-2 46 1 58 18 70 11 8 20 21 20 30 0 13 -2 13 -16 2 -15 -12 -16 -11 -9 11 4 14 13 40 21 58 12 31 12 32 -11 32 -14 0 -26 -7 -29 -17 -3 -10 -4 -6 -2 10 2 15 -2 27 -7 27 -8 0 -8 3 -1 10 6 6 19 8 28 4 14 -5 15 -9 4 -16 -9 -6 -5 -8 12 -6 17 2 25 9 24 21 -1 9 4 17 12 17 8 0 14 6 14 14 0 7 12 35 26 60 25 45 54 66 97 69 10 1 40 32 67 69 60 82 84 87 143 33z m-675 -32 c-2 -9 -8 -18 -15 -20 -7 -3 -9 3 -6 16 6 25 26 28 21 4z m1259 -39 c-3 -3 -12 -4 -19 -1 -8 3 -5 6 6 6 11 1 17 -2 13 -5z m-388 -80 c18 -22 51 -94 49 -106 -2 -7 2 -12 9 -11 6 2 21 -12 32 -30 11 -17 33 -40 50 -50 17 -10 31 -22 31 -28 0 -26 -41 3 -124 86 -51 52 -80 104 -70 128 3 8 -2 20 -10 27 -9 7 -13 17 -9 23 4 6 11 3 19 -9 7 -10 18 -24 23 -30z m419 -20 c1 -14 -2 -23 -8 -19 -12 7 -14 45 -2 45 4 0 9 -11 10 -26z m-357 -47 c-10 -9 -11 -8 -5 6 3 10 9 15 12 12 3 -3 0 -11 -7 -18z m87 -57 c3 -7 0 -10 -7 -6 -6 4 -11 2 -11 -5 0 -8 -4 -8 -15 1 -13 11 -13 15 -3 21 16 11 30 7 36 -11z m-769 -117 c0 -10 -4 -27 -9 -38 -7 -16 -9 -13 -9 18 -1 20 4 37 9 37 6 0 10 -8 9 -17z m1018 0 c-4 -3 -7 0 -7 7 0 7 3 10 7 7 3 -4 3 -10 0 -14z m-27 -27 c0 -3 -5 -8 -12 -12 -7 -4 -8 -3 -4 4 7 12 16 16 16 8z m-113 -83 c-4 -3 -7 0 -7 7 0 7 3 10 7 7 3 -4 3 -10 0 -14z"/>
<path d="M547 914 c-3 -18 -1 -19 20 -10 31 15 35 31 7 31 -15 0 -24 -7 -27 -21z"/>
<path d="M515 880 c3 -5 8 -10 11 -10 3 0 2 5 -1 10 -3 6 -8 10 -11 10 -3 0 -2 -4 1 -10z"/>
<path d="M443 793 c4 -3 10 -3 14 0 3 4 0 7 -7 7 -7 0 -10 -3 -7 -7z"/>
<path d="M463 773 c4 -3 10 -3 14 0 3 4 0 7 -7 7 -7 0 -10 -3 -7 -7z"/>
<path d="M448 720 c-7 -24 -3 -38 8 -28 3 4 4 17 2 30 l-3 23 -7 -25z"/>
<path d="M1083 723 c4 -3 10 -3 14 0 3 4 0 7 -7 7 -7 0 -10 -3 -7 -7z"/>
<path d="M411 665 c-1 -37 0 -38 17 -22 11 12 13 20 6 25 -6 4 -14 14 -17 22 -3 8 -6 -3 -6 -25z"/>
<path d="M1107 689 c7 -7 15 -10 18 -7 3 3 -2 9 -12 12 -14 6 -15 5 -6 -5z"/>
<path d="M420 299 c0 -5 5 -7 10 -4 6 3 10 8 10 11 0 2 -4 4 -10 4 -5 0 -10 -5 -10 -11z"/>
<path d="M330 1430 c0 -7 3 -10 7 -7 3 4 3 10 0 14 -4 3 -7 0 -7 -7z"/>
<path d="M307 1367 c-11 -29 -9 -43 4 -30 6 6 9 19 7 29 -3 18 -4 18 -11 1z"/>
<path d="M85 1080 c3 -5 8 -10 11 -10 3 0 2 5 -1 10 -3 6 -8 10 -11 10 -3 0 -2 -4 1 -10z"/>
</g>
<g id="layer106" fill="#b1b1b1" stroke="none">
<path d="M1338 1493 c6 -2 18 -2 25 0 6 3 1 5 -13 5 -14 0 -19 -2 -12 -5z"/>
<path d="M1290 1477 c0 -20 -44 -37 -95 -37 -25 0 -45 -4 -45 -10 0 -5 5 -10 10 -10 7 0 8 -31 4 -86 -6 -68 -4 -88 7 -95 11 -7 11 -9 -3 -9 -12 0 -18 -8 -18 -25 0 -13 -11 -35 -24 -48 l-24 -24 -11 24 c-6 13 -11 31 -11 39 0 8 -7 17 -15 20 -8 4 -15 16 -15 28 0 40 -71 119 -135 151 -33 17 -62 33 -65 37 -10 13 -145 21 -216 12 -62 -7 -66 -8 -34 -15 34 -6 33 -6 -12 -8 -37 -1 -55 -7 -81 -31 -19 -16 -43 -30 -54 -30 -31 0 -55 -33 -47 -64 3 -14 3 -34 -1 -43 -5 -10 -10 -27 -11 -38 -2 -11 -17 -63 -34 -115 -16 -52 -33 -113 -36 -135 -4 -22 -9 -34 -11 -27 -7 17 -30 15 -45 -5 -16 -22 -55 -28 -75 -11 -11 9 -16 9 -24 -3 -6 -9 -9 -10 -9 -2 0 7 -7 10 -15 7 -8 -4 -23 0 -33 7 -14 11 -15 11 -4 -1 6 -8 12 -23 12 -35 0 -12 7 -30 15 -41 8 -10 15 -23 15 -28 0 -8 -54 -4 -118 9 l-32 7 0 -405 0 -405 52 -4 c29 -3 172 -5 318 -6 l265 -2 -28 21 c-15 11 -24 26 -21 31 4 6 2 8 -4 4 -6 -3 -14 -1 -17 4 -6 10 -49 31 -65 32 -3 0 -17 9 -32 19 -14 10 -31 19 -37 19 -6 0 -13 11 -17 24 -3 13 -21 37 -40 52 -33 28 -45 54 -24 54 14 0 13 53 -2 68 -9 9 -9 17 0 34 6 13 14 38 17 57 8 45 14 54 29 42 8 -7 16 -7 22 -1 5 5 25 11 45 13 20 2 41 7 47 11 7 4 12 2 12 -5 0 -8 5 -7 17 2 11 10 14 10 9 2 -4 -8 -2 -13 8 -13 24 0 -13 76 -38 78 -11 0 -26 8 -32 17 -10 13 -16 14 -34 5 -11 -6 -29 -8 -39 -5 -16 5 -18 14 -14 58 2 29 11 79 19 112 25 96 25 95 4 95 -10 0 -21 -8 -24 -17 -3 -10 -4 -6 -2 10 2 15 -2 27 -7 27 -8 0 -8 3 -1 10 6 6 19 8 28 4 14 -5 15 -9 4 -15 -10 -7 -9 -9 5 -9 22 0 22 3 -9 95 -20 60 -24 88 -19 124 6 44 49 165 65 186 5 6 12 25 17 43 12 46 27 40 35 -14 4 -26 12 -59 17 -73 12 -29 13 -49 7 -132 l-4 -56 48 11 c43 10 53 18 94 74 56 75 81 80 139 27 20 -20 37 -40 37 -45 0 -5 8 -25 17 -45 17 -36 33 -46 33 -20 0 9 6 12 15 9 8 -4 15 -1 15 5 0 29 52 -1 122 -72 43 -42 81 -77 86 -77 4 0 28 -21 52 -46 60 -61 96 -80 118 -62 12 10 14 10 8 1 -4 -7 -3 -13 1 -13 15 0 53 31 53 43 0 8 -3 8 -9 -1 -6 -11 -9 -9 -13 6 -3 11 -1 25 5 31 7 7 5 17 -8 31 -18 20 -18 20 12 14 24 -5 32 -1 46 20 21 32 21 33 -3 39 -25 6 -27 27 -2 27 14 0 15 2 2 10 -13 8 -12 10 3 10 10 0 15 5 12 10 -4 6 -10 8 -15 5 -5 -3 -12 0 -16 6 -3 6 0 15 7 20 11 6 9 9 -6 15 -18 7 -18 8 1 15 10 4 37 8 59 9 l40 2 -40 8 c-22 4 -44 5 -50 2 -5 -3 -2 4 8 15 24 27 22 30 -20 37 -87 15 -91 17 -102 46 -7 23 -7 28 3 24 10 -4 12 2 8 23 -5 24 -6 25 -13 8 -4 -12 -8 -14 -8 -6 -1 8 -4 12 -7 8 -8 -8 -54 34 -54 50 0 7 8 13 18 13 9 0 38 16 63 34 33 24 48 43 53 67 3 18 4 34 2 37 -3 2 -8 -12 -11 -31 -4 -22 -18 -43 -37 -57 -32 -24 -43 -22 -34 7 3 10 5 22 5 27 -1 10 30 30 37 24 2 -3 -5 -15 -16 -28 -25 -29 -25 -33 0 -18 21 13 55 98 39 98 -5 0 -9 -7 -9 -15 0 -8 -4 -15 -10 -15 -5 0 -7 6 -4 14 3 8 1 17 -5 21 -6 3 -11 0 -11 -8z m-95 -227 c3 -5 4 -10 1 -10 -3 0 -8 5 -11 10 -3 6 -4 10 -1 10 3 0 8 -4 11 -10z m-228 -72 c-2 -13 -4 -5 -4 17 -1 22 1 32 4 23 2 -10 2 -28 0 -40z m240 45 c-4 -3 -10 -3 -14 0 -3 4 0 7 7 7 7 0 10 -3 7 -7z m38 -33 c3 -5 4 -10 1 -10 -3 0 -8 5 -11 10 -3 6 -4 10 -1 10 3 0 8 -4 11 -10z m-678 -57 c-4 -3 -7 0 -7 7 0 7 3 10 7 7 3 -4 3 -10 0 -14z m410 0 c-4 -3 -10 -3 -14 0 -3 4 0 7 7 7 7 0 10 -3 7 -7z m-24 -43 c3 -11 1 -18 -4 -14 -5 3 -9 12 -9 20 0 20 7 17 13 -6z m444 -147 c-4 -3 -10 -3 -14 0 -3 4 0 7 7 7 7 0 10 -3 7 -7z m-1103 -14 c-3 -6 -1 -14 5 -18 8 -5 7 -12 -2 -25 -11 -15 -15 -16 -19 -5 -6 15 7 59 17 59 4 0 3 -5 -1 -11z m-97 -36 c-4 -3 -10 -3 -14 0 -3 4 0 7 7 7 7 0 10 -3 7 -7z m50 0 c-4 -3 -10 -3 -14 0 -3 4 0 7 7 7 7 0 10 -3 7 -7z m20 -19 c-3 -3 -12 -4 -19 -1 -8 3 -5 6 6 6 11 1 17 -2 13 -5z m953 -24 c6 -11 8 -20 6 -20 -3 0 -10 9 -16 20 -6 11 -8 20 -6 20 3 0 10 -9 16 -20z m-831 -97 c0 -10 -4 -27 -9 -38 -7 -16 -9 -13 -9 18 -1 20 4 37 9 37 6 0 10 -8 9 -17z"/>
<path d="M1125 1430 c3 -5 8 -10 11 -10 2 0 4 5 4 10 0 6 -5 10 -11 10 -5 0 -7 -4 -4 -10z"/>
<path d="M300 1340 c0 -7 3 -10 7 -7 3 4 3 10 0 14 -4 3 -7 0 -7 -7z"/>
<path d="M1292 1338 c-6 -6 -12 -18 -12 -26 0 -10 3 -10 16 2 8 9 14 21 12 26 -2 7 -8 6 -16 -2z"/>
<path d="M293 1183 c4 -3 10 -3 14 0 3 4 0 7 -7 7 -7 0 -10 -3 -7 -7z"/>
<path d="M188 1173 c-19 -5 -24 -18 -9 -27 5 -3 7 -15 4 -26 -6 -24 -5 -24 41 -5 36 15 36 16 20 40 -16 25 -23 27 -56 18z"/>
<path d="M235 1060 c-10 -11 -14 -20 -9 -20 12 1 44 25 44 34 0 12 -17 6 -35 -14z"/>
<path d="M268 1055 c-20 -26 -24 -50 -7 -40 10 7 32 55 27 60 -2 2 -11 -7 -20 -20z"/>
<path d="M934 1008 c-4 -7 -3 -8 4 -4 12 7 16 16 8 16 -3 0 -8 -5 -12 -12z"/>
<path d="M1431 974 c0 -11 3 -14 6 -6 3 7 2 16 -1 19 -3 4 -6 -2 -5 -13z"/>
<path d="M304 968 c-4 -7 -3 -8 4 -4 12 7 16 16 8 16 -3 0 -8 -5 -12 -12z"/>
<path d="M1393 973 c4 -3 10 -3 14 0 3 4 0 7 -7 7 -7 0 -10 -3 -7 -7z"/>
<path d="M550 917 c0 -16 2 -16 25 -1 14 9 25 17 25 18 0 0 -11 1 -25 1 -17 0 -25 -5 -25 -18z"/>
<path d="M1440 835 c23 -28 -97 -185 -141 -185 -10 0 -42 -9 -71 -20 -33 -12 -85 -20 -138 -22 l-85 -3 13 -54 c9 -35 11 -61 5 -75 -5 -12 -6 -32 -2 -46 4 -14 7 -39 8 -56 1 -18 7 -34 15 -37 9 -4 12 -14 9 -28 -5 -18 -3 -21 11 -16 27 11 9 -42 -30 -86 -31 -34 -39 -49 -35 -70 1 -4 -10 -12 -24 -17 -13 -5 -34 -19 -45 -30 -12 -12 -24 -19 -27 -16 -4 3 -12 1 -20 -5 -8 -8 -13 -8 -13 -1 0 6 6 12 13 15 21 8 -1 19 -24 12 -17 -6 -19 -9 -8 -16 11 -7 11 -9 -2 -9 -9 0 -23 -7 -30 -16 -11 -14 -10 -18 5 -30 14 -10 78 -13 278 -14 143 0 262 -1 266 -1 4 -1 35 -1 70 0 l62 1 0 418 0 418 -35 0 c-23 0 -31 -3 -25 -11z"/>
<path d="M531 819 c-23 -19 -23 -20 -5 -40 15 -17 16 -25 7 -50 -10 -25 -9 -29 7 -29 10 0 20 -7 24 -15 3 -8 11 -15 17 -15 13 0 6 63 -14 129 l-12 40 -24 -20z"/>
<path d="M620 620 c0 -7 3 -10 7 -7 3 4 3 10 0 14 -4 3 -7 0 -7 -7z"/>
<path d="M619 553 c-1 -5 -1 -12 0 -17 1 -5 -4 -13 -11 -17 -10 -7 -9 -9 4 -9 13 0 17 7 16 25 -2 24 -7 33 -9 18z"/>
<path d="M965 160 c-3 -5 1 -10 9 -10 9 0 16 5 16 10 0 6 -4 10 -9 10 -6 0 -13 -4 -16 -10z"/>
</g>
<g id="layer107" fill="#cccccc" stroke="none">
<path d="M644 1441 c3 -4 -6 -13 -19 -19 -16 -7 -23 -17 -19 -27 8 -19 25 -19 50 0 10 8 29 15 42 15 13 0 20 4 17 10 -3 6 3 10 13 10 15 0 21 -8 24 -35 3 -29 1 -35 -15 -35 -15 0 -18 -5 -13 -24 4 -16 -1 -32 -14 -49 -11 -14 -20 -32 -20 -41 0 -8 -6 -19 -13 -23 -17 -10 -72 -110 -81 -146 -6 -25 -4 -28 14 -25 11 2 21 8 21 13 0 6 14 25 32 44 18 19 25 31 17 26 -8 -4 0 7 19 26 18 18 43 34 55 35 11 1 22 3 24 3 1 1 -6 9 -15 19 -12 12 -21 14 -25 8 -5 -6 -8 -2 -8 10 0 28 7 33 38 25 36 -10 67 -63 53 -90 -8 -14 -8 -22 1 -27 7 -4 8 -3 4 4 -14 23 13 11 33 -14 12 -15 21 -22 21 -15 0 14 47 14 56 0 5 -8 9 -8 14 1 8 12 -13 61 -37 88 -7 7 -13 18 -13 23 0 18 -3 25 -26 67 -13 23 -24 49 -24 56 0 8 -7 19 -15 26 -8 7 -13 16 -10 20 3 5 -1 11 -7 13 -7 3 -3 6 10 6 39 2 23 18 -24 25 -67 9 -166 7 -160 -3z m236 -223 c0 -15 -15 -8 -28 12 -12 19 -11 20 8 8 11 -7 20 -16 20 -20z"/>
<path d="M911 1381 c7 -19 49 -47 49 -32 0 6 -4 11 -9 11 -5 0 -17 8 -27 17 -12 12 -16 13 -13 4z"/>
<path d="M668 1353 c7 -3 16 -2 19 1 4 3 -2 6 -13 5 -11 0 -14 -3 -6 -6z"/>
<path d="M976 1305 c4 -8 1 -15 -6 -15 -17 0 -6 -85 17 -131 14 -31 62 -83 69 -76 2 1 5 16 8 32 6 34 -1 68 -14 60 -4 -3 -6 4 -3 15 3 12 -1 22 -10 26 -13 5 -14 9 -5 24 9 14 9 25 -1 46 -10 22 -14 25 -22 13 -7 -12 -9 -11 -9 4 0 9 -7 17 -15 17 -9 0 -12 -6 -9 -15z m54 -40 c0 -9 -6 -12 -15 -9 -8 4 -15 10 -15 15 0 5 7 9 15 9 8 0 15 -7 15 -15z"/>
<path d="M1156 1165 c-4 -25 -4 -49 -1 -55 4 -7 -2 -7 -19 0 -27 10 -30 6 -27 -35 1 -14 -1 -16 -7 -7 -6 8 -12 -5 -20 -40 -15 -60 -1 -90 20 -42 l12 29 4 -25 c2 -14 14 -33 27 -42 22 -17 23 -17 18 5 -3 14 -2 18 4 10 11 -15 38 0 29 16 -4 6 -11 9 -16 6 -5 -3 -11 -1 -15 5 -4 6 -11 8 -16 5 -5 -4 -9 3 -9 14 0 21 19 24 32 6 5 -6 8 -5 8 3 0 7 5 10 10 7 6 -4 8 -10 5 -15 -7 -12 76 -97 103 -105 13 -4 22 -2 22 5 0 6 -4 8 -10 5 -5 -3 -10 -2 -10 4 0 6 -10 20 -22 32 l-23 22 36 -21 c31 -19 38 -20 48 -8 6 7 26 16 43 20 17 3 29 8 27 11 -9 8 -79 -16 -79 -27 0 -6 -3 -8 -6 -5 -4 4 -3 12 3 19 11 15 11 28 0 46 -5 8 -3 12 7 12 20 0 21 19 1 26 -18 7 -20 27 -3 22 7 -3 19 1 26 9 8 7 38 13 70 14 56 1 56 1 17 9 -22 4 -44 5 -50 2 -5 -3 -2 4 8 15 9 11 17 22 17 25 0 3 -44 13 -97 23 -54 10 -110 24 -125 31 -15 8 -29 14 -31 14 -3 0 -8 -20 -11 -45z m-9 -92 c-4 -3 -7 0 -7 7 0 7 3 10 7 7 3 -4 3 -10 0 -14z"/>
<path d="M1443 1123 c9 -2 23 -2 30 0 6 3 -1 5 -18 5 -16 0 -22 -2 -12 -5z"/>
<path d="M553 1093 c4 -3 10 -3 14 0 3 4 0 7 -7 7 -7 0 -10 -3 -7 -7z"/>
<path d="M1420 1046 c7 -7 14 -6 21 1 9 9 7 12 -9 10 -14 -1 -18 -5 -12 -11z"/>
<path d="M1405 1020 c3 -5 8 -10 11 -10 3 0 2 5 -1 10 -3 6 -8 10 -11 10 -3 0 -2 -4 1 -10z"/>
<path d="M1453 1015 c0 -8 4 -12 9 -9 5 3 6 10 3 15 -9 13 -12 11 -12 -6z"/>
<path d="M1360 990 c-20 -6 -21 -8 -5 -8 11 0 29 3 40 8 25 11 -1 11 -35 0z"/>
<path d="M1430 980 c0 -7 3 -10 7 -7 3 4 3 10 0 14 -4 3 -7 0 -7 -7z"/>
<path d="M1400 950 c0 -7 3 -10 7 -7 3 4 3 10 0 14 -4 3 -7 0 -7 -7z"/>
<path d="M296 934 c-4 -9 -4 -19 -1 -22 2 -3 7 3 11 12 4 9 4 19 1 22 -2 3 -7 -3 -11 -12z"/>
<path d="M1375 920 c-16 -7 -17 -9 -3 -9 9 -1 20 4 23 9 7 11 7 11 -20 0z"/>
<path d="M120 898 c0 -13 7 -33 15 -44 23 -31 18 -35 -39 -32 -30 1 -52 6 -50 10 3 5 -6 8 -20 8 l-26 0 0 -400 0 -400 263 -1 c144 -1 284 -3 312 -5 45 -4 48 -3 30 10 -11 8 -24 12 -30 8 -5 -3 -3 3 5 13 8 10 10 16 3 12 -6 -4 -15 -2 -18 3 -6 10 -34 24 -60 30 -5 1 -22 11 -37 21 -14 10 -31 19 -36 19 -6 0 -14 10 -17 23 -9 28 -63 79 -68 63 -2 -6 -6 1 -9 17 -4 20 -1 27 11 27 14 0 14 2 1 10 -10 6 -11 10 -2 10 6 0 12 9 12 20 0 11 -4 20 -10 20 -5 0 -10 9 -10 19 0 11 5 23 10 26 6 3 10 19 10 34 0 15 4 41 10 57 12 36 51 334 45 344 -8 14 -53 -2 -58 -20 -3 -13 0 -16 14 -13 15 4 19 0 18 -23 0 -29 -17 -80 -18 -57 -1 9 -8 10 -27 3 -36 -14 -44 -13 -44 10 0 11 5 20 11 20 6 0 1 8 -11 18 -24 20 -37 92 -18 103 5 4 -2 7 -17 7 -19 0 -23 -3 -14 -9 15 -10 14 -10 -18 -14 -14 -1 -23 4 -27 18 -3 13 -10 18 -20 14 -11 -5 -16 0 -16 13 0 11 -4 20 -9 20 -5 0 -16 3 -25 6 -12 5 -16 0 -16 -18z m267 -705 c-4 -3 -7 0 -7 7 0 7 3 10 7 7 3 -4 3 -10 0 -14z"/>
<path d="M265 899 c-4 -6 -5 -12 -2 -15 2 -3 7 2 10 11 7 17 1 20 -8 4z"/>
<path d="M1318 883 c6 -2 18 -2 25 0 6 3 1 5 -13 5 -14 0 -19 -2 -12 -5z"/>
<path d="M288 814 c2 -19 10 -34 17 -34 7 0 16 -6 18 -12 3 -7 6 -3 6 10 1 12 -6 25 -14 28 -8 4 -15 12 -15 19 0 8 -4 16 -8 19 -4 2 -6 -11 -4 -30z"/>
<path d="M1439 836 c4 -6 7 -15 6 -21 -4 -42 -113 -165 -147 -165 -10 0 -41 -9 -70 -20 -29 -11 -74 -20 -100 -20 -27 0 -48 -4 -48 -9 0 -4 -17 -5 -38 -1 l-38 7 14 -55 c9 -36 11 -62 5 -76 -5 -12 -6 -32 -2 -46 4 -14 7 -39 8 -56 1 -18 7 -34 15 -37 9 -4 12 -14 9 -26 -3 -13 -1 -21 6 -21 7 0 9 5 5 12 -4 7 -3 8 4 4 19 -11 3 -57 -31 -93 -17 -18 -31 -42 -32 -55 -1 -14 -14 -29 -36 -41 -19 -10 -40 -26 -47 -35 -12 -16 -14 -16 -27 1 -10 13 -20 17 -36 12 -16 -5 -18 -9 -9 -15 7 -5 19 -6 27 -3 7 3 16 -2 19 -12 4 -9 13 -14 20 -11 7 3 16 1 19 -4 7 -12 186 -11 235 0 19 5 62 11 95 14 81 8 174 36 169 51 -3 7 9 16 28 21 l33 10 3 350 2 350 -34 0 c-23 0 -32 -4 -27 -10z"/>
<path d="M1015 700 c-3 -5 -1 -10 4 -10 6 0 11 5 11 10 0 6 -2 10 -4 10 -3 0 -8 -4 -11 -10z"/>
<path d="M994 654 c-4 -14 -4 -28 0 -31 3 -4 6 1 6 10 0 9 7 20 16 25 15 8 15 10 0 15 -11 5 -18 -1 -22 -19z"/>
<path d="M1017 643 c-4 -3 -7 -11 -7 -17 0 -6 5 -5 12 2 6 6 9 14 7 17 -3 3 -9 2 -12 -2z"/>
<path d="M423 173 c4 -3 10 -3 14 0 3 4 0 7 -7 7 -7 0 -10 -3 -7 -7z"/>
<path d="M966 161 c-3 -5 3 -11 13 -14 14 -3 18 -1 14 9 -6 16 -19 18 -27 5z"/>
</g>
<g id="layer108" fill="#e6e6e6" stroke="none">
<path d="M1161 1178 c2 -58 13 -93 30 -93 9 0 24 -8 34 -18 21 -22 40 -17 40 9 0 13 7 19 22 18 18 0 20 3 12 17 -5 10 -6 24 -3 32 3 10 -13 21 -58 38 -35 13 -66 25 -70 27 -5 2 -7 -11 -7 -30z m99 -72 c0 -3 -5 -8 -12 -12 -7 -4 -8 -3 -4 4 7 12 16 16 16 8z"/>
<path d="M1400 1139 c0 -5 5 -7 10 -4 6 3 10 8 10 11 0 2 -4 4 -10 4 -5 0 -10 -5 -10 -11z"/>
<path d="M1365 1105 l-30 -14 26 -1 c15 0 29 7 33 15 3 8 4 15 3 14 -1 0 -15 -7 -32 -14z"/>
<path d="M1125 1049 c-4 -6 -5 -12 -2 -15 2 -3 7 2 10 11 7 17 1 20 -8 4z"/>
<path d="M1290 1051 c0 -5 7 -12 16 -15 14 -5 15 -4 4 9 -14 17 -20 19 -20 6z"/>
<path d="M1180 1044 c0 -11 41 -64 50 -64 11 0 -32 69 -42 70 -5 0 -8 -3 -8 -6z"/>
<path d="M120 898 c0 -13 7 -33 15 -44 8 -10 15 -23 15 -28 0 -8 -54 -4 -118 9 l-32 7 0 -385 0 -385 89 -1 c51 0 110 6 137 14 26 8 51 12 54 10 4 -3 31 4 60 14 45 16 50 20 34 29 -17 9 -18 14 -6 44 8 21 9 34 2 36 -5 2 -10 11 -10 20 0 11 -3 13 -8 6 -4 -7 -15 -8 -27 -3 -17 6 -17 8 -2 8 9 1 17 6 17 12 0 5 -4 7 -10 4 -6 -3 -10 -1 -10 4 0 6 10 11 23 12 21 1 21 1 -3 9 -24 8 -24 8 -2 9 16 1 22 7 21 24 -1 16 -2 18 -6 4 -2 -9 -8 -17 -12 -17 -8 0 -3 29 18 118 16 67 30 146 36 212 10 93 9 102 -4 81 -5 -8 -20 -15 -33 -16 -12 -1 -36 -5 -53 -10 -25 -6 -28 -5 -17 6 16 17 15 47 -2 65 -10 9 -14 30 -12 59 2 42 1 44 -15 29 -21 -19 -42 -15 -52 10 -4 11 -13 16 -22 12 -10 -4 -15 1 -15 14 0 11 -4 20 -9 20 -5 0 -16 3 -25 6 -12 5 -16 0 -16 -18z m-77 -75 c-7 -2 -19 -2 -25 0 -7 3 -2 5 12 5 14 0 19 -2 13 -5z"/>
<path d="M425 550 c3 -5 11 -10 16 -10 6 0 7 5 4 10 -3 6 -11 10 -16 10 -6 0 -7 -4 -4 -10z"/>
<path d="M463 543 c4 -3 10 -3 14 0 3 4 0 7 -7 7 -7 0 -10 -3 -7 -7z"/>
<path d="M463 513 c4 -3 10 -3 14 0 3 4 0 7 -7 7 -7 0 -10 -3 -7 -7z"/>
<path d="M380 185 c-11 -13 -10 -14 4 -9 9 3 16 10 16 15 0 13 -6 11 -20 -6z"/>
<path d="M393 163 c4 -3 10 -3 14 0 3 4 0 7 -7 7 -7 0 -10 -3 -7 -7z"/>
<path d="M413 143 c4 -3 10 -3 14 0 3 4 0 7 -7 7 -7 0 -10 -3 -7 -7z"/>
</g>


</svg>