<!DOCTYPE svg PUBLIC "-//W3C//DTD SVG 20010904//EN" "http://www.w3.org/TR/2001/REC-SVG-20010904/DTD/svg10.dtd">
<svg version="1.0" xmlns="http://www.w3.org/2000/svg" width="150px" height="150px" viewBox="0 0 1500 1500" preserveAspectRatio="xMidYMid meet">
<g id="layer101" fill="#3a3a3a" stroke="none">
 <path d="M0 1171 l0 -329 33 -7 c63 -13 117 -17 117 -9 0 5 -7 18 -15 28 -8 11 -15 30 -15 43 0 13 -4 23 -10 23 -20 0 -9 30 26 67 19 20 31 39 25 41 -17 6 -13 32 4 32 19 0 19 16 0 24 -9 3 -12 12 -8 22 4 12 3 15 -5 10 -7 -4 -10 -17 -6 -32 5 -18 2 -24 -11 -24 -13 0 -15 3 -7 13 6 7 7 18 3 26 -6 9 -11 10 -15 2 -4 -6 -2 -11 5 -11 7 0 10 -2 7 -5 -10 -10 -68 17 -68 33 0 13 3 12 20 -3 19 -18 20 -17 20 6 0 20 8 28 38 38 50 18 121 51 154 73 26 18 26 18 21 -2 -3 -12 0 -20 7 -20 9 0 9 -4 -1 -17 -11 -13 -11 -15 -1 -9 9 5 13 3 11 -5 -1 -8 -1 -30 0 -49 1 -32 3 -33 14 -15 19 33 46 114 53 163 7 50 27 82 53 82 9 0 34 14 55 30 22 17 45 30 52 30 7 0 14 6 16 13 7 19 253 17 296 -3 17 -8 32 -19 32 -23 0 -5 4 -6 9 -3 11 7 42 -4 37 -13 -2 -3 13 -19 34 -36 20 -16 42 -43 48 -58 6 -16 16 -26 21 -22 6 3 8 0 5 -8 -3 -8 0 -18 7 -23 8 -4 10 -3 5 4 -4 7 -3 12 3 12 5 0 15 -13 23 -30 19 -43 55 -42 62 3 13 88 16 180 5 193 -9 12 -3 14 34 14 57 0 97 17 97 42 0 17 -25 18 -645 18 l-645 0 0 -329z m140 264 c16 -10 12 -25 -7 -26 -16 -1 -16 -2 0 -6 13 -3 17 -11 14 -24 -3 -10 -1 -21 4 -24 4 -3 6 -12 2 -20 -7 -19 -43 -20 -43 -1 0 7 -8 20 -19 27 -27 20 -36 76 -13 82 20 4 48 1 62 -8z m47 -2 c4 -10 11 -21 16 -24 5 -3 2 -9 -5 -12 -8 -3 -21 7 -30 24 -15 25 -15 29 -2 29 8 0 18 -8 21 -17z m156 -3 c-3 -12 -8 -19 -11 -16 -5 6 5 36 12 36 2 0 2 -9 -1 -20z m562 10 c3 -5 -1 -10 -9 -10 -9 0 -16 5 -16 10 0 6 4 10 9 10 6 0 13 -4 16 -10z m190 -10 c3 -5 4 -10 1 -10 -3 0 -8 5 -11 10 -3 6 -4 10 -1 10 3 0 8 -4 11 -10z m45 0 c0 -5 -2 -10 -4 -10 -3 0 -8 5 -11 10 -3 6 -1 10 4 10 6 0 11 -4 11 -10z m-818 -75 c-2 -14 -8 -25 -13 -25 -10 0 -11 12 -3 34 10 25 22 19 16 -9z"/>
 <path d="M1324 1468 c3 -18 2 -39 -3 -46 -11 -19 9 -102 26 -102 16 0 17 -42 1 -58 -9 -9 -7 -19 10 -42 24 -32 27 -40 13 -40 -5 0 -11 9 -14 20 -8 31 -24 24 -23 -10 1 -25 5 -30 26 -31 52 -3 55 -4 54 -26 0 -19 5 -23 28 -23 21 0 28 -5 28 -20 0 -11 -4 -20 -9 -20 -17 0 -20 -29 -6 -44 19 -18 19 -35 1 -42 -8 -3 -12 -13 -9 -25 3 -10 9 -16 15 -13 5 3 6 -14 2 -45 -6 -47 -5 -51 15 -51 21 0 21 0 21 325 l0 325 -91 0 -91 0 6 -32z m13 -85 c-4 -3 -7 0 -7 7 0 7 3 10 7 7 3 -4 3 -10 0 -14z m149 -229 c-3 -9 -6 -20 -6 -25 0 -5 -10 -8 -22 -8 -17 1 -19 2 -5 6 9 2 17 13 17 24 0 10 5 19 11 19 6 0 8 -7 5 -16z m-29 -11 c-4 -3 -10 -3 -14 0 -3 4 0 7 7 7 7 0 10 -3 7 -7z m10 -180 c-4 -3 -7 0 -7 7 0 7 3 10 7 7 3 -4 3 -10 0 -14z"/>
 <path d="M810 1412 c0 -5 12 -19 28 -33 15 -13 21 -17 15 -9 -17 19 -16 30 3 30 8 0 12 5 9 10 -7 12 -55 14 -55 2z"/>
 <path d="M916 1365 c4 -8 15 -15 27 -15 23 0 22 2 -10 19 -19 10 -22 9 -17 -4z"/>
 <path d="M860 1340 c0 -7 3 -10 7 -7 3 4 3 10 0 14 -4 3 -7 0 -7 -7z"/>
 <path d="M871 1299 c0 -15 6 -32 14 -39 13 -10 15 -9 15 9 0 12 -4 20 -9 16 -5 -3 -12 5 -14 17 -4 21 -4 20 -6 -3z"/>
 <path d="M913 1303 c4 -3 10 -3 14 0 3 4 0 7 -7 7 -7 0 -10 -3 -7 -7z"/>
 <path d="M1320 1300 c8 -5 20 -10 25 -10 6 0 3 5 -5 10 -8 5 -19 10 -25 10 -5 0 -3 -5 5 -10z"/>
 <path d="M1025 1250 c10 -11 20 -20 23 -20 3 0 -3 9 -13 20 -10 11 -20 20 -23 20 -3 0 3 -9 13 -20z"/>
 <path d="M870 1220 c0 -7 3 -10 7 -7 3 4 3 10 0 14 -4 3 -7 0 -7 -7z"/>
 <path d="M974 1197 c1 -15 6 -30 9 -34 11 -10 8 30 -3 47 -7 11 -8 8 -6 -13z"/>
 <path d="M915 1200 c3 -5 8 -10 11 -10 3 0 2 5 -1 10 -3 6 -8 10 -11 10 -3 0 -2 -4 1 -10z"/>
 <path d="M1195 1190 c3 -5 8 -10 11 -10 2 0 4 5 4 10 0 6 -5 10 -11 10 -5 0 -7 -4 -4 -10z"/>
 <path d="M719 1170 c-9 -5 -33 -34 -54 -65 -31 -45 -44 -55 -67 -55 -15 0 -28 -4 -28 -9 0 -5 -10 -11 -23 -15 -15 -3 -29 -20 -41 -48 -10 -24 -29 -66 -42 -94 -28 -60 -30 -79 -8 -70 8 3 12 2 9 -4 -3 -6 -1 -10 4 -10 6 0 11 -4 11 -10 0 -5 -7 -10 -15 -10 -8 0 -15 -5 -15 -10 0 -7 6 -7 19 0 11 5 27 7 35 4 12 -5 15 -2 10 11 -6 15 12 35 40 46 6 2 16 -25 22 -61 17 -87 17 -100 -1 -100 -8 0 -15 5 -15 11 0 6 -6 17 -14 25 -16 16 -41 19 -31 5 3 -6 -4 -8 -16 -6 -22 4 -46 -13 -51 -36 -2 -7 -12 -23 -23 -37 l-20 -24 -7 29 -7 28 2 -30 c2 -25 7 -31 32 -36 20 -3 39 1 56 13 32 22 123 23 157 2 20 -13 22 -13 22 2 0 36 11 5 15 -42 2 -27 5 -58 7 -69 2 -16 -3 -20 -27 -21 -23 0 -30 -5 -28 -18 1 -15 -4 -17 -30 -12 -18 4 -33 11 -35 16 -2 6 -12 10 -23 10 -11 0 -19 7 -19 16 0 13 -3 14 -13 5 -12 -9 -41 -18 -72 -20 -5 -1 -3 -6 5 -11 11 -7 7 -10 -17 -10 -18 0 -33 4 -33 10 0 5 -7 7 -15 4 -10 -4 -14 -17 -11 -37 1 -18 -4 -40 -13 -50 -12 -15 -13 -22 -3 -37 16 -26 15 -77 0 -83 -8 -2 1 -17 23 -38 20 -19 39 -43 43 -54 4 -12 33 -33 76 -53 38 -18 72 -37 75 -43 4 -5 11 -7 16 -3 5 3 8 0 7 -7 -2 -6 12 -21 29 -31 27 -17 43 -19 98 -13 62 7 114 34 108 56 -2 5 0 8 5 7 4 -1 17 2 30 6 17 6 27 3 36 -9 11 -16 15 -15 41 9 15 14 34 26 40 26 7 0 16 11 19 25 4 14 23 43 42 65 22 24 34 46 30 55 -3 8 -1 15 4 15 6 0 10 4 10 10 0 5 -7 7 -17 3 -13 -5 -15 -2 -10 16 3 14 0 24 -9 28 -8 3 -14 17 -14 32 0 14 -4 40 -9 57 -5 18 -5 37 1 47 5 10 5 36 0 66 -7 41 -7 48 6 44 8 -3 17 -1 21 6 4 6 27 15 52 20 24 5 34 9 22 10 -12 1 -25 6 -29 13 -5 8 -2 9 10 5 12 -5 19 0 25 15 l8 21 22 -22 c24 -24 41 -20 41 11 0 26 -50 73 -105 99 -29 14 -45 31 -60 62 -10 23 -31 58 -46 77 -14 19 -36 54 -48 77 -14 29 -26 41 -36 37 -10 -4 -22 10 -39 45 -13 28 -20 51 -15 51 5 0 9 5 9 10 0 6 -8 10 -18 10 -10 0 -29 11 -42 25 -24 26 -53 31 -81 15z m-59 -194 c0 -3 -4 -8 -10 -11 -5 -3 -10 -1 -10 4 0 6 5 11 10 11 6 0 10 -2 10 -4z m-143 -103 c-4 -3 -7 0 -7 7 0 7 3 10 7 7 3 -4 3 -10 0 -14z m218 -111 c-2 -3 -1 -10 4 -16 6 -7 2 -11 -15 -11 -18 0 -23 5 -22 21 2 15 7 20 20 16 11 -2 16 -7 13 -10z m382 -79 c-4 -3 -7 0 -7 7 0 7 3 10 7 7 3 -4 3 -10 0 -14z m-397 -97 c0 -13 3 -32 6 -40 4 -11 2 -15 -7 -11 -16 6 -23 75 -8 75 5 0 9 -11 9 -24z m7 -83 c-4 -3 -7 0 -7 7 0 7 3 10 7 7 3 -4 3 -10 0 -14z m-287 -197 c0 -3 -4 -8 -10 -11 -5 -3 -10 -1 -10 4 0 6 5 11 10 11 6 0 10 -2 10 -4z m-3 -133 c-4 -3 -10 -3 -14 0 -3 4 0 7 7 7 7 0 10 -3 7 -7z m553 -13 c0 -5 -7 -10 -16 -10 -8 0 -12 5 -9 10 3 6 10 10 16 10 5 0 9 -4 9 -10z"/>
 <path d="M1001 1157 c0 -10 -6 -15 -12 -11 -16 10 6 -29 25 -46 14 -11 16 -9 16 16 0 21 -3 25 -9 15 -7 -11 -10 -7 -14 15 -2 16 -5 21 -6 11z"/>
 <path d="M900 1125 c7 -8 16 -15 21 -15 5 0 9 7 9 15 0 9 -9 15 -21 15 -18 0 -19 -2 -9 -15z"/>
 <path d="M1158 1117 c-3 -19 -2 -25 4 -19 6 6 8 18 6 28 -3 14 -5 12 -10 -9z"/>
 <path d="M1062 1100 c0 -14 2 -19 5 -12 2 6 2 18 0 25 -3 6 -5 1 -5 -13z"/>
 <path d="M951 1094 c-1 -15 24 -36 32 -27 12 12 7 25 -7 20 -8 -3 -17 -1 -20 6 -3 8 -5 8 -5 1z"/>
 <path d="M1100 1080 c0 -7 3 -10 7 -7 3 4 3 10 0 14 -4 3 -7 0 -7 -7z"/>
 <path d="M1148 1055 c-3 -14 -1 -25 3 -25 5 0 9 11 9 25 0 14 -2 25 -4 25 -2 0 -6 -11 -8 -25z"/>
 <path d="M1024 1013 c2 -9 8 -19 15 -21 10 -3 10 0 2 17 -14 25 -20 27 -17 4z"/>
 <path d="M1065 1020 c3 -5 8 -10 11 -10 3 0 2 5 -1 10 -3 6 -8 10 -11 10 -3 0 -2 -4 1 -10z"/>
 <path d="M1100 1020 c0 -7 3 -10 7 -7 3 4 3 10 0 14 -4 3 -7 0 -7 -7z"/>
 <path d="M1005 980 c3 -5 8 -10 11 -10 3 0 2 5 -1 10 -3 6 -8 10 -11 10 -3 0 -2 -4 1 -10z"/>
 <path d="M1100 981 c0 -5 5 -13 10 -16 6 -3 10 -2 10 4 0 5 -4 13 -10 16 -5 3 -10 2 -10 -4z"/>
 <path d="M1200 980 c0 -7 3 -10 7 -7 3 4 3 10 0 14 -4 3 -7 0 -7 -7z"/>
 <path d="M975 960 c3 -5 8 -10 11 -10 3 0 2 5 -1 10 -3 6 -8 10 -11 10 -3 0 -2 -4 1 -10z"/>
 <path d="M1007 947 c-3 -8 0 -20 6 -27 9 -10 9 -11 -3 -5 -17 9 53 -70 89 -100 14 -11 33 -28 43 -37 10 -10 23 -18 29 -18 17 0 4 24 -19 36 -22 11 -78 66 -73 72 1 2 -1 7 -5 10 -4 4 -4 1 0 -5 4 -7 2 -13 -3 -13 -11 0 -15 13 -12 38 1 6 -3 12 -8 12 -6 0 -17 12 -24 26 -11 20 -15 23 -20 11z"/>
 <path d="M1076 947 c3 -10 9 -15 12 -12 3 3 0 11 -7 18 -10 9 -11 8 -5 -6z"/>
 <path d="M1103 932 c-9 -15 -7 -18 8 -19 20 -2 23 5 11 24 -6 9 -11 8 -19 -5z"/>
 <path d="M1163 943 c4 -3 10 -3 14 0 3 4 0 7 -7 7 -7 0 -10 -3 -7 -7z"/>
 <path d="M1140 931 c0 -5 5 -13 10 -16 6 -3 10 -2 10 4 0 5 -4 13 -10 16 -5 3 -10 2 -10 -4z"/>
 <path d="M1053 923 c4 -3 10 -3 14 0 3 4 0 7 -7 7 -7 0 -10 -3 -7 -7z"/>
 <path d="M1175 920 c3 -5 8 -10 11 -10 3 0 2 5 -1 10 -3 6 -8 10 -11 10 -3 0 -2 -4 1 -10z"/>
 <path d="M1122 866 c7 -8 15 -12 17 -11 5 6 -10 25 -20 25 -5 0 -4 -6 3 -14z"/>
 <path d="M426 785 c-3 -9 -6 -22 -5 -28 0 -7 5 -1 10 12 5 13 8 26 5 28 -2 2 -6 -3 -10 -12z"/>
 <path d="M1419 753 c-13 -16 -12 -17 4 -4 16 13 21 21 13 21 -2 0 -10 -8 -17 -17z"/>
 <path d="M514 748 c-4 -7 -3 -8 4 -4 12 7 16 16 8 16 -3 0 -8 -5 -12 -12z"/>
 <path d="M1200 745 c0 -8 51 -55 60 -55 16 0 11 10 -17 35 -26 23 -43 31 -43 20z"/>
 <path d="M1285 650 l-30 -8 27 -1 c15 0 30 4 33 9 3 6 5 9 3 9 -2 -1 -16 -5 -33 -9z"/>
 <path d="M514 602 c5 -16 3 -22 -7 -22 -9 0 -18 5 -20 10 -3 6 -4 5 -3 -2 2 -7 13 -13 25 -12 17 0 20 -4 15 -19 -4 -13 -2 -17 5 -13 16 10 13 45 -5 64 -15 15 -16 14 -10 -6z"/>
 <path d="M1168 613 c7 -3 16 -2 19 1 4 3 -2 6 -13 5 -11 0 -14 -3 -6 -6z"/>
 <path d="M390 580 c0 -6 7 -13 15 -17 24 -9 27 1 5 15 -13 8 -20 8 -20 2z"/>
 <path d="M380 530 c0 -7 3 -10 7 -7 3 4 3 10 0 14 -4 3 -7 0 -7 -7z"/>
 <path d="M398 523 c-3 -12 0 -20 8 -20 16 0 17 6 5 25 -6 11 -9 9 -13 -5z"/>
 <path d="M550 521 c-7 -15 -7 -21 0 -21 12 0 25 28 17 36 -3 3 -10 -4 -17 -15z"/>
 <path d="M610 525 c-10 -12 -10 -15 4 -15 9 0 16 7 16 15 0 8 -2 15 -4 15 -2 0 -9 -7 -16 -15z"/>
 <path d="M77 3 c46 -2 120 -2 166 0 45 1 8 3 -83 3 -91 0 -128 -2 -83 -3z"/>
 <path d="M348 3 c7 -3 16 -2 19 1 4 3 -2 6 -13 5 -11 0 -14 -3 -6 -6z"/>
 <path d="M393 3 c9 -2 23 -2 30 0 6 3 -1 5 -18 5 -16 0 -22 -2 -12 -5z"/>
 </g>

</svg>